<?xml version="1.0" encoding="UTF-8" standalone="no"?>
<!-- Created with Inkscape (http://www.inkscape.org/) -->

<svg
   xmlns:dc="http://purl.org/dc/elements/1.1/"
   xmlns:cc="http://creativecommons.org/ns#"
   xmlns:rdf="http://www.w3.org/1999/02/22-rdf-syntax-ns#"
   xmlns:svg="http://www.w3.org/2000/svg"
   xmlns="http://www.w3.org/2000/svg"
   xmlns:sodipodi="http://sodipodi.sourceforge.net/DTD/sodipodi-0.dtd"
   xmlns:inkscape="http://www.inkscape.org/namespaces/inkscape"
   width="37.260612mm"
   height="11.195479mm"
   viewBox="0 0 37.260612 11.195479"
   version="1.1"
   id="svg8"
   inkscape:version="0.92.4 (5da689c313, 2019-01-14)"
   sodipodi:docname="gatormart_logo.svg">
  <defs
     id="defs2" />
  <sodipodi:namedview
     id="base"
     pagecolor="#ffffff"
     bordercolor="#666666"
     borderopacity="1.0"
     inkscape:pageopacity="0.0"
     inkscape:pageshadow="2"
     inkscape:zoom="68.944087"
     inkscape:cx="118.50569"
     inkscape:cy="20.149941"
     inkscape:document-units="mm"
     inkscape:current-layer="layer1"
     showgrid="false"
     inkscape:snap-nodes="true"
     inkscape:snap-others="false"
     inkscape:snap-global="false"
     inkscape:snap-bbox="true"
     inkscape:window-width="1920"
     inkscape:window-height="1017"
     inkscape:window-x="1912"
     inkscape:window-y="-8"
     inkscape:window-maximized="1"
     fit-margin-top="0"
     fit-margin-left="0"
     fit-margin-right="0"
     fit-margin-bottom="0">
    <inkscape:grid
       type="xygrid"
       id="grid4518"
       originx="-6.8875947"
       originy="-30.24264" />
  </sodipodi:namedview>
  <metadata
     id="metadata5">
    <rdf:RDF>
      <cc:Work
         rdf:about="">
        <dc:format>image/svg+xml</dc:format>
        <dc:type
           rdf:resource="http://purl.org/dc/dcmitype/StillImage" />
        <dc:title></dc:title>
      </cc:Work>
    </rdf:RDF>
  </metadata>
  <g
     inkscape:label="Layer 1"
     inkscape:groupmode="layer"
     id="layer1"
     transform="translate(-6.8875953,-255.56188)">
    <g
       aria-label="atorMart"
       style="font-style:normal;font-variant:normal;font-weight:normal;font-stretch:normal;font-size:16.93333244px;line-height:1.25;font-family:'Berlin Sans FB Demi';-inkscape-font-specification:'Berlin Sans FB Demi';letter-spacing:0px;word-spacing:0px;fill:#000000;fill-opacity:1;stroke:none;stroke-width:0.26458332"
       id="text4522">
      <path
         d="m 19.453764,262.99828 q 0,0.26527 0.03101,0.78892 0.03101,0.52366 0.03101,0.78549 0,0.1378 -0.120578,0.14814 -0.427192,0.031 -0.978407,0.031 -0.06546,0 -0.08957,-0.19637 -0.02067,-0.19981 -0.05168,-0.20326 -0.02756,0.0138 -0.07235,0.0586 -0.385851,0.38929 -0.826823,0.38929 -0.671794,0 -1.112766,-0.53054 -0.416857,-0.4961 -0.416857,-1.18512 0,-0.79581 0.430637,-1.28157 0.447863,-0.50298 1.226454,-0.50298 0.54088,0 0.854384,0.37896 0.01378,0.0172 0.02412,0.0172 0.03101,0 0.0689,-0.16536 0.04134,-0.16881 0.09646,-0.16881 0.127469,0 0.485759,0.0723 0.341064,0.0689 0.489203,0.11714 0.05168,0.0207 0.05168,0.0551 0,0.0138 -0.01034,0.0723 -0.110243,0.62356 -0.110243,1.31947 z m -1.10932,0.0207 q 0,-0.29284 -0.186036,-0.48232 -0.18259,-0.19292 -0.478868,-0.19292 -0.296278,0 -0.478868,0.18948 -0.18259,0.18948 -0.18259,0.48576 0,0.27905 0.192925,0.47887 0.192926,0.19981 0.468533,0.19981 0.292833,0 0.478868,-0.18948 0.186036,-0.19292 0.186036,-0.4892 z"
         style="font-style:normal;font-variant:normal;font-weight:normal;font-stretch:normal;font-size:7.05555534px;font-family:'Berlin Sans FB Demi';-inkscape-font-specification:'Berlin Sans FB Demi';stroke-width:0.26458332"
         id="path4545" />
      <path
         d="m 22.444107,263.71141 q 0,0.10336 -0.02756,0.31351 -0.02412,0.21015 -0.02412,0.31005 0,0.0965 -0.02067,0.12403 -0.02067,0.0276 -0.113688,0.0792 -0.444417,0.2446 -0.985297,0.2446 -0.995633,0 -0.995633,-0.76137 0,-0.22738 0.01723,-0.68213 0.01722,-0.4582 0.01722,-0.68557 0,-0.15159 -0.1757,-0.15159 -0.01378,0 -0.04479,0 -0.03101,0.003 -0.04479,0.003 -0.130914,0 -0.130914,-0.093 0,-0.0551 0.0069,-0.16881 0.01034,-0.11369 0.01034,-0.16881 0,-0.0724 -0.01034,-0.22048 -0.0069,-0.14814 -0.0069,-0.22049 0,-0.0689 0.220486,-0.0758 0.124024,-0.003 0.134359,-0.0689 0.02067,-0.13092 0.01378,-0.41342 -0.01378,-0.44441 -0.01378,-0.42374 0,-0.39963 0.07579,-0.39963 0.09302,0 0.265272,0.0413 0.196371,0.0448 0.272163,0.0517 0.1757,0.0241 0.530545,0.0655 0.08613,0.007 0.08613,0.0586 0,0.1378 -0.02412,0.41685 -0.02067,0.27906 -0.02067,0.42031 0,0.16881 0.09991,0.16881 0.120579,0 0.365181,-0.0103 0.244601,-0.0103 0.368625,-0.0103 0.07579,0 0.07579,0.0517 0,0.0792 -0.01723,0.23771 -0.01722,0.15848 -0.01722,0.23771 0,0.0827 0.0034,0.24116 0.0034,0.15848 0.0034,0.24116 0,0.0723 -0.09991,0.0723 -0.0689,0 -0.230821,-0.003 -0.16192,-0.007 -0.230821,-0.007 h -0.258383 q -0.05168,0 -0.05168,0.15158 0,0.0827 0,0.24461 0.0034,0.16536 0.0034,0.2446 0,0.28939 0.06546,0.39963 0.09302,0.14814 0.36518,0.14814 0.08613,0 0.244602,-0.0379 0.161919,-0.0413 0.227376,-0.0413 0.07235,0 0.07235,0.0758 z"
         style="font-style:normal;font-variant:normal;font-weight:normal;font-stretch:normal;font-size:7.05555534px;font-family:'Berlin Sans FB Demi';-inkscape-font-specification:'Berlin Sans FB Demi';stroke-width:0.26458332"
         id="path4547" />
      <path
         d="m 26.126914,263.02584 q 0,0.78548 -0.482313,1.27468 -0.478868,0.48921 -1.260905,0.48921 -0.757921,0 -1.247125,-0.48232 -0.489203,-0.48231 -0.489203,-1.24023 0,-0.79926 0.468533,-1.29536 0.468533,-0.49954 1.267795,-0.49954 0.778592,0 1.260905,0.48921 0.482313,0.48576 0.482313,1.26435 z m -1.129991,0 q 0,-0.27216 -0.16881,-0.47887 -0.168809,-0.21015 -0.437527,-0.21015 -0.272162,0 -0.447862,0.2136 -0.165365,0.19981 -0.165365,0.47542 0,0.27905 0.165365,0.47887 0.1757,0.21359 0.447862,0.21359 0.268718,0 0.444417,-0.21359 0.16192,-0.19982 0.16192,-0.47887 z"
         style="font-style:normal;font-variant:normal;font-weight:normal;font-stretch:normal;font-size:7.05555534px;font-family:'Berlin Sans FB Demi';-inkscape-font-specification:'Berlin Sans FB Demi';stroke-width:0.26458332"
         id="path4549" />
      <path
         d="m 28.831314,262.57453 q 0,0.13436 -0.148139,0.13436 -0.06546,0 -0.192925,-0.007 -0.124023,-0.0103 -0.186035,-0.0103 -0.285943,0 -0.389296,0.0896 -0.103353,0.0896 -0.103353,0.36173 0,0.14814 0.0034,0.45131 0.0069,0.29972 0.0069,0.44786 0,0.0999 0.01378,0.29972 0.01378,0.19638 0.01378,0.29284 0,0.0827 -0.113688,0.093 -0.165364,0.0138 -0.506429,0.0138 -0.327284,0 -0.523654,-0.0207 -0.113689,-0.0138 -0.113689,-0.11369 0,-0.27561 0.0034,-0.82338 0.0034,-0.55122 0.0034,-0.82682 0,-0.8096 -0.148139,-1.33326 -0.0069,-0.031 -0.0069,-0.0517 0,-0.0517 0.05168,-0.0689 0.18948,-0.0207 0.55466,-0.0758 0.544325,-0.10679 0.561551,-0.10679 0.06201,0 0.07924,0.21704 0.01722,0.21704 0.06201,0.21704 -0.04823,0 0.282497,-0.17915 0.33073,-0.18259 0.637343,-0.18259 0.192925,0 0.192925,0.0827 0,0.0999 -0.02067,0.28249 -0.02067,0.19637 -0.02412,0.2825 0,0.0999 0.0034,0.26527 0.0069,0.20326 0.0069,0.26872 z"
         style="font-style:normal;font-variant:normal;font-weight:normal;font-stretch:normal;font-size:7.05555534px;font-family:'Berlin Sans FB Demi';-inkscape-font-specification:'Berlin Sans FB Demi';stroke-width:0.26458332"
         id="path4551" />
      <path
         d="m 34.395143,264.61403 q 0,0.1068 -0.09991,0.1068 h -1.219564 q -0.09991,0 -0.09991,-0.12058 0,-0.34796 0.02412,-1.04387 0.02756,-0.69591 0.02756,-1.04386 0,-0.0999 -0.03101,-0.1068 -0.0379,0.0207 -0.461643,1.06454 -0.248046,0.61322 -0.496093,1.223 -0.03445,0.0792 -0.08613,0.093 -0.01722,0.003 -0.137804,0.003 -0.179144,0 -0.213595,-0.0689 -0.186036,-0.37897 -0.489204,-1.10244 -0.323839,-0.76481 -0.485758,-1.10587 -0.0069,-0.0172 -0.03101,-0.0379 -0.02412,0.031 -0.02412,0.0999 0,0.33762 0.01723,1.01286 0.01722,0.67524 0.01722,1.01286 0,0.12058 -0.09646,0.12058 h -1.150662 q -0.0689,0 -0.08613,-0.0207 -0.01378,-0.0241 -0.01378,-0.0792 0,-0.37552 0.03445,-1.12655 0.0379,-0.75447 0.0379,-1.12999 0,-0.39963 -0.03445,-1.49862 -0.0034,-0.28594 -0.03101,-0.85094 l -0.0034,-0.0586 q -0.0034,-0.0689 0.144694,-0.0689 0.18948,0 0.568441,-0.0103 0.37896,-0.0138 0.56844,-0.0138 0.0379,0 0.106798,0.14469 l 1.005968,2.20831 q 0.106798,0.22393 0.179145,0.22393 0.0379,0 0.16192,-0.25838 0.347954,-0.72347 1.030083,-2.18075 0.05857,-0.13435 0.127469,-0.13435 0.09991,0 0.299723,0.0103 0.203261,0.0103 0.306613,0.0103 0.08613,0 0.261828,-0.0172 0.179145,-0.0172 0.265272,-0.0172 0.103353,0 0.103353,0.0827 0,0.40652 -0.03101,1.21612 -0.02756,0.80615 -0.02756,1.21267 0,0.37552 0.03101,1.12655 0.03101,0.75103 0.03101,1.1231 z"
         style="font-style:normal;font-variant:normal;font-weight:normal;font-stretch:normal;font-size:7.05555534px;font-family:'Berlin Sans FB Demi';-inkscape-font-specification:'Berlin Sans FB Demi';stroke-width:0.26458332"
         id="path4553" />
      <path
         d="m 38.47069,262.99828 q 0,0.26527 0.03101,0.78892 0.03101,0.52366 0.03101,0.78549 0,0.1378 -0.120579,0.14814 -0.427191,0.031 -0.978407,0.031 -0.06546,0 -0.08957,-0.19637 -0.02067,-0.19981 -0.05168,-0.20326 -0.02756,0.0138 -0.07235,0.0586 -0.38585,0.38929 -0.826822,0.38929 -0.671794,0 -1.112766,-0.53054 -0.416857,-0.4961 -0.416857,-1.18512 0,-0.79581 0.430637,-1.28157 0.447863,-0.50298 1.226454,-0.50298 0.54088,0 0.854384,0.37896 0.01378,0.0172 0.02412,0.0172 0.03101,0 0.0689,-0.16536 0.04134,-0.16881 0.09646,-0.16881 0.127469,0 0.485758,0.0723 0.341065,0.0689 0.489204,0.11714 0.05168,0.0207 0.05168,0.0551 0,0.0138 -0.01033,0.0723 -0.110243,0.62356 -0.110243,1.31947 z m -1.109321,0.0207 q 0,-0.29284 -0.186035,-0.48232 -0.18259,-0.19292 -0.478868,-0.19292 -0.296278,0 -0.478868,0.18948 -0.18259,0.18948 -0.18259,0.48576 0,0.27905 0.192925,0.47887 0.192925,0.19981 0.468533,0.19981 0.292833,0 0.478868,-0.18948 0.186035,-0.19292 0.186035,-0.4892 z"
         style="font-style:normal;font-variant:normal;font-weight:normal;font-stretch:normal;font-size:7.05555534px;font-family:'Berlin Sans FB Demi';-inkscape-font-specification:'Berlin Sans FB Demi';stroke-width:0.26458332"
         id="path4555" />
      <path
         d="m 41.440363,262.57453 q 0,0.13436 -0.148139,0.13436 -0.06546,0 -0.192925,-0.007 -0.124024,-0.0103 -0.186035,-0.0103 -0.285943,0 -0.389296,0.0896 -0.103353,0.0896 -0.103353,0.36173 0,0.14814 0.0034,0.45131 0.0069,0.29972 0.0069,0.44786 0,0.0999 0.01378,0.29972 0.01378,0.19638 0.01378,0.29284 0,0.0827 -0.113688,0.093 -0.165365,0.0138 -0.506429,0.0138 -0.327284,0 -0.523655,-0.0207 -0.113688,-0.0138 -0.113688,-0.11369 0,-0.27561 0.0034,-0.82338 0.0034,-0.55122 0.0034,-0.82682 0,-0.8096 -0.148139,-1.33326 -0.0069,-0.031 -0.0069,-0.0517 0,-0.0517 0.05168,-0.0689 0.18948,-0.0207 0.55466,-0.0758 0.544325,-0.10679 0.561551,-0.10679 0.06201,0 0.07924,0.21704 0.01722,0.21704 0.06201,0.21704 -0.04823,0 0.282498,-0.17915 0.330729,-0.18259 0.637343,-0.18259 0.192925,0 0.192925,0.0827 0,0.0999 -0.02067,0.28249 -0.02067,0.19637 -0.02412,0.2825 0,0.0999 0.0034,0.26527 0.0069,0.20326 0.0069,0.26872 z"
         style="font-style:normal;font-variant:normal;font-weight:normal;font-stretch:normal;font-size:7.05555534px;font-family:'Berlin Sans FB Demi';-inkscape-font-specification:'Berlin Sans FB Demi';stroke-width:0.26458332"
         id="path4557" />
      <path
         d="m 44.148208,263.71141 q 0,0.10336 -0.02756,0.31351 -0.02412,0.21015 -0.02412,0.31005 0,0.0965 -0.02067,0.12403 -0.02067,0.0276 -0.113688,0.0792 -0.444418,0.2446 -0.985298,0.2446 -0.995632,0 -0.995632,-0.76137 0,-0.22738 0.01723,-0.68213 0.01723,-0.4582 0.01723,-0.68557 0,-0.15159 -0.1757,-0.15159 -0.01378,0 -0.04479,0 -0.03101,0.003 -0.04479,0.003 -0.130913,0 -0.130913,-0.093 0,-0.0551 0.0069,-0.16881 0.01033,-0.11369 0.01033,-0.16881 0,-0.0724 -0.01033,-0.22048 -0.0069,-0.14814 -0.0069,-0.22049 0,-0.0689 0.220486,-0.0758 0.124023,-0.003 0.134359,-0.0689 0.02067,-0.13092 0.01378,-0.41342 -0.01378,-0.44441 -0.01378,-0.42374 0,-0.39963 0.07579,-0.39963 0.09302,0 0.265272,0.0413 0.19637,0.0448 0.272162,0.0517 0.1757,0.0241 0.530545,0.0655 0.08613,0.007 0.08613,0.0586 0,0.1378 -0.02412,0.41685 -0.02067,0.27906 -0.02067,0.42031 0,0.16881 0.09991,0.16881 0.120578,0 0.36518,-0.0103 0.244602,-0.0103 0.368625,-0.0103 0.07579,0 0.07579,0.0517 0,0.0792 -0.01723,0.23771 -0.01722,0.15848 -0.01722,0.23771 0,0.0827 0.0034,0.24116 0.0034,0.15848 0.0034,0.24116 0,0.0723 -0.09991,0.0723 -0.0689,0 -0.230821,-0.003 -0.16192,-0.007 -0.230822,-0.007 h -0.258382 q -0.05168,0 -0.05168,0.15158 0,0.0827 0,0.24461 0.0034,0.16536 0.0034,0.2446 0,0.28939 0.06546,0.39963 0.09302,0.14814 0.36518,0.14814 0.08613,0 0.244601,-0.0379 0.16192,-0.0413 0.227377,-0.0413 0.07235,0 0.07235,0.0758 z"
         style="font-style:normal;font-variant:normal;font-weight:normal;font-stretch:normal;font-size:7.05555534px;font-family:'Berlin Sans FB Demi';-inkscape-font-specification:'Berlin Sans FB Demi';stroke-width:0.26458332"
         id="path4559" />
    </g>
    <path
       style="fill:#000000;fill-opacity:1;stroke:none;stroke-width:0.1;stroke-linecap:butt;stroke-linejoin:miter;stroke-miterlimit:4;stroke-dasharray:none;stroke-opacity:1"
       d="m 13.983011,256.61426 -0.661458,-0.16537 0.03307,0.54571 -0.777214,-0.0827 0.03307,0.57878 -0.788456,-0.0764 -0.302947,0.70479 0.375372,-0.56688 0.881399,0.10382 0.132289,-0.41341 0.644921,0.0661 0.132291,-0.4961 0.429948,0.14883 0.09922,-0.38033 c 0,0 0.241937,0.40909 0.132292,0.62838 -0.109645,0.21929 -1.150947,0.61747 -1.564359,0.99781 -0.413412,0.38034 -0.604587,0.47988 -1.149636,0.55132 -0.545048,0.0715 -1.590222,0.81165 -1.590222,0.81165 0,0 0.767628,0.29125 0.966066,0.2722 0.198438,-0.0191 0.5361,-0.23151 0.5361,-0.23151 l -0.237132,0.3142 0.496197,0.0776 -0.449107,0.11696 0.255607,0.30663 c 0,0 -0.304111,-0.19086 -0.807766,-0.20491 -0.503655,-0.014 -1.2147229,0.0542 -1.2147229,0.0542 0,0 -0.5698492,0.97501 -0.5255313,2.04787 0.044318,1.07286 0.9166358,1.76219 0.9166358,1.76219 0,0 -0.040531,-0.45647 0.3232724,-0.68798 0.363803,-0.23151 0.950243,0.13494 0.950243,0.13494 l 0.19408,-0.41603 0.06163,0.42622 0.415669,-0.11418 -0.163894,0.33167 0.347949,0.0103 c 0,0 -0.381387,0.40054 -0.559194,0.42974 -0.177806,0.0292 -0.370154,-0.20347 -0.558407,-0.0928 -0.188254,0.11072 -0.225056,0.35482 0.03942,0.5583 0.264482,0.20349 1.650385,0.35326 2.203911,0.0472 0.553527,-0.30604 0.827509,-1.30506 0.727081,-2.02883 -0.100428,-0.72377 -0.130877,-0.8817 -0.929977,-0.80787 -0.7991,0.0738 -1.142065,0.0612 -1.605348,-0.0623 -0.463283,-0.12351 -0.995073,-0.44701 -0.915539,-0.60046 0.07953,-0.15345 1.172973,-0.0181 1.856693,-0.1504 0.68372,-0.13228 1.348541,-0.55542 1.849778,-0.39913 0.501238,0.15629 0.838422,1.12862 0.938849,1.94274 0.100428,0.81412 -0.09444,2.39747 -0.80309,3.13779 -0.708649,0.74031 -1.279338,0.78061 -2.216102,0.79737 -0.936764,0.0168 -2.4303386,-0.47467 -2.8997357,-0.77494 -0.4693971,-0.30028 -0.6562781,-0.11297 -0.7064563,-0.0118 -0.050178,0.10115 -0.016537,0.29104 0.079374,0.42996 0.095911,0.13891 0.059532,0.3109 -0.1686714,0.37702 -0.2282034,0.0661 -0.7309117,0.19514 -0.7309117,0.19514 l 0.1058332,-0.21167 -0.4134114,-0.0761 0.363802,-0.21497 -0.386953,-0.13891 0.4464843,-0.0661 c 0,0 -0.3241144,-0.61515 -0.125677,-0.84666 0.1984374,-0.23151 0.5655464,-0.18852 0.5655464,-0.18852 0,0 -0.4486353,-0.24476 -0.8887741,-0.96499 -0.4401388,-0.72022 -0.6000015,-2.11096 -0.4099325,-3.08425 0.1900691,-0.97329 1.1791961,-1.89417 1.1791961,-1.89417 0,0 -0.032913,-0.86606 -0.0963,-1.06367 -0.063387,-0.19762 -0.3839764,-0.4909 -0.3839764,-0.4909 l 0.3611702,0.11314 -0.074081,-0.43624 0.2708602,0.33175 0.2000963,-0.33141 c 0,0 -0.031225,0.39989 0.022158,0.68 0.053382,0.28012 0.467639,0.8675 0.467639,0.8675 0,0 0.554051,-0.21131 0.7739529,-0.38588 0.2199018,-0.17457 0.3996219,-0.63536 0.4101179,-0.77735 0.02843,-0.38465 0.201109,-0.5731 0.334384,-0.62834 0.133275,-0.0552 0.341316,0.0159 0.496093,0.0612 0.154778,0.0452 0.477919,-0.0149 0.859897,-0.21368 0.381977,-0.19875 0.771385,-0.37745 1.149756,-0.69936 0.378371,-0.32191 0.274193,-0.4078 0.48332,-0.50878 0.209127,-0.10098 0.454759,0.097 0.51263,0.31419 0.05787,0.21719 0.06676,0.47092 0.04961,0.71114 z"
       id="path4524"
       inkscape:connector-curvature="0"
       sodipodi:nodetypes="cccccccccccccczzzczccccczczczcccccczzzzzzzzzzzzzzzzzcccccczczzczccccczczszzzzzzcc" />
  </g>
</svg>
